<?xml version="1.0" encoding="UTF-8" standalone="no"?>
<!-- Created with Inkscape (http://www.inkscape.org/) -->

<svg
   xmlns:dc="http://purl.org/dc/elements/1.1/"
   xmlns:cc="http://creativecommons.org/ns#"
   xmlns:rdf="http://www.w3.org/1999/02/22-rdf-syntax-ns#"
   xmlns:svg="http://www.w3.org/2000/svg"
   xmlns="http://www.w3.org/2000/svg"
   xmlns:sodipodi="http://sodipodi.sourceforge.net/DTD/sodipodi-0.dtd"
   xmlns:inkscape="http://www.inkscape.org/namespaces/inkscape"
   height="55"
   id="svg5629"
   inkscape:version="0.48.1 r9760"
   sodipodi:docname="activity.svg"
   version="1.1"
   width="55">
  <defs
     id="defs5631">
    <inkscape:perspective
       id="perspective5637"
       inkscape:persp3d-origin="372.04724 : 350.78739 : 1"
       inkscape:vp_x="0 : 526.18109 : 1"
       inkscape:vp_y="0 : 1000 : 0"
       inkscape:vp_z="744.09448 : 526.18109 : 1"
       sodipodi:type="inkscape:persp3d" />
    <inkscape:perspective
       id="perspective5624"
       inkscape:persp3d-origin="0.5 : 0.33333333 : 1"
       inkscape:vp_x="0 : 0.5 : 1"
       inkscape:vp_y="0 : 1000 : 0"
       inkscape:vp_z="1 : 0.5 : 1"
       sodipodi:type="inkscape:persp3d" />
    <clipPath
       id="clipPath1"
       clipPathUnits="userSpaceOnUse">
      <path
         inkscape:connector-curvature="0"
         id="path2478"
         d="m 0,0 1400,0 0,1192 L 0,1192 0,0 z" />
    </clipPath>
    <clipPath
       id="clipPath1-4"
       clipPathUnits="userSpaceOnUse">
      <path
         inkscape:connector-curvature="0"
         id="path2478-2"
         d="m 0,0 1400,0 0,1192 L 0,1192 0,0 z" />
    </clipPath>
  </defs>
  <sodipodi:namedview
     bordercolor="#666666"
     borderopacity="1.0"
     id="base"
     inkscape:current-layer="layer1"
     inkscape:cx="1.769666"
     inkscape:cy="6.238817"
     inkscape:document-units="px"
     inkscape:pageopacity="0.0"
     inkscape:pageshadow="2"
     inkscape:window-height="693"
     inkscape:window-maximized="1"
     inkscape:window-width="1366"
     inkscape:window-x="0"
     inkscape:window-y="25"
     inkscape:zoom="8"
     pagecolor="#ffffff"
     showgrid="false" />
  <metadata
     id="metadata5634">
    <rdf:RDF>
      <cc:Work
         rdf:about="">
        <dc:format>image/svg+xml</dc:format>
        <dc:type
           rdf:resource="http://purl.org/dc/dcmitype/StillImage" />
        <dc:title />
      </cc:Work>
    </rdf:RDF>
  </metadata>
  <g
     id="layer1"
     inkscape:groupmode="layer"
     inkscape:label="Capa 1"
     transform="translate(0,-997.3622)">
    <path
       d="m 46.537953,1049.3769 c -2.934869,-0.6331 -5.371406,-2.7815 -8.423886,-2.9882 -2.885537,1.6458 -6.42331,0.6765 -9.155717,-0.8157 -2.390115,0.7447 -4.792238,0.6086 -6.176227,-1.7101 -3.238686,-2.4684 -7.073101,-4.5275 -9.022392,-8.2802 -2.052629,-2.7342 -5.4647117,-3.9044 -7.8808289,-6.2663 -0.9083159,-1.2214 -4.0198987,-2.4698 -2.951045,-4.1054 2.4518402,1.463 4.5357965,0.1478 6.7560621,-1.0722 2.2398128,-1.7163 1.7405318,-4.9473 3.1123548,-7.1758 1.728572,-1.2474 4.481194,0.065 5.705852,-2.4478 1.679166,-2.6862 3.917308,1.3543 5.900675,-0.2927 0.932186,-1.8018 3.162943,-2.4014 4.483895,-3.9378 1.80547,-1.3521 1.989028,-3.7384 3.251828,-5.4 2.320339,-2.0175 4.439015,1.5176 6.842813,0.7041 2.762087,-0.5434 5.190292,-2.1119 7.853825,-2.9359 1.219093,-1.0199 5.31278,-3.5234 5.150957,-0.7648 -3.323842,1.1531 1.365137,2.6208 1.010421,4.7996 0.269457,0.9313 0.140165,2.685 -0.89713,2.2253 0.341496,1.6482 -0.179388,4.166 -2.372111,2.9349 1.748993,2.3471 -1.51549,4.8588 -0.07067,7.2472 -0.507282,3.4395 1.862593,6.8663 1.080195,10.1356 -2.182074,1.2917 0.956747,-4.3758 -2.018912,-3.6347 0.625666,0.8663 1.415674,3.2504 -0.655011,3.7361 0.707605,1.429 2.152343,3.9444 0.818583,4.9621 0.284298,-1.9679 -3.187187,-0.3606 -0.963277,-0.3346 0.359833,1.2022 -0.536191,3.5425 1.292995,3.2113 1.879285,2.6972 -3.10468,4.4447 -1.641822,7.3199 1.761595,1.6842 4.400954,6.005 -0.192918,4.8845 l -0.41994,-0.015 -0.418565,0.016 0,0 z"
       id="path4834"
       style="fill:#ffffff;fill-opacity:1;stroke:#000000;stroke-width:3.00911832;stroke-miterlimit:4;stroke-opacity:1;stroke-dasharray:none"
       inkscape:connector-curvature="0" />
    <path
       style="font-size:12px;font-style:normal;font-weight:normal;fill:#c6ecff;fill-opacity:1;fill-rule:evenodd;stroke:#0978ab;stroke-width:1;stroke-linecap:butt;stroke-linejoin:round;stroke-miterlimit:3.86369991;stroke-opacity:1;stroke-dasharray:none;stroke-dashoffset:0;marker:none;visibility:visible;display:inline;overflow:visible;enable-background:accumulate;font-family:Dialog"
       clip-path="url(#clipPath1)"
       d="m 474.75,779.75 4.09375,3.71875 1.875,2.625 1.78125,5.09375 3,1.96875 2.84375,0.0313 2.46875,3.40625 1.75,2.21875 1.3125,3.125 -0.0313,3.15625 1.75,2.21875 3.125,0.5625 -2.71875,1.28125 0.8125,2.09375 2.3125,-1.125 2.28125,-1.9375 0.84375,-2.03125 -1.4375,-2.1875 -0.0937,-2.15625 10.96875,-0.59375 3.21875,-0.21875 4.0625,-0.375 2.34375,0.84375 1.9375,2.28125 -2.28125,3.9375 -2.875,3.78125 -4.125,8.125 -5.6875,14.4375 -0.84375,3.46875 -1.59375,6.34375 1.4375,5.125 2.21875,3.0625 2.875,0.34375 3.15625,0.96875 2.15625,3.28125 -0.625,2.375 -2.09375,-1.625 -2.125,-1.3125 -2.53125,0.625 -0.28125,2.9375 3.90625,5.625 3.09375,3.53125 0.65625,2.625 1.125,2.15625 0.625,2.3125 1.28125,3.375 0.21875,3.03125 -2.75,1.875 3.34375,5.9375 -2.8125,4.28125 -2.84375,0.96875 -2.625,2.1875 -1.53125,3.09375 1.0625,6.03125 2.46875,1.5625 2.03125,0.125 0.15625,2.75 1.21875,2.46875 2.9375,1.75 2.9375,2.5 -1,-3.28125 0.21875,-4.46875 2.125,0.15625 1.1875,2.09375 -0.4375,2.0625 0.25,5.03125 2.09375,13.71875 -2.125,-2.40625 -2.21875,0.625 0.75,2.9375 1.5625,3.21875 2.40625,0.34375 1.90625,-2.90625 5.25,9.25 1.40625,3.46875 4.78125,6.71875 2.6875,5.03125 1.0625,3.8125 -0.71875,4.71875 0.40625,2.5 0.90625,3.34375 1.53125,2.40625 0.90625,6.75 2.34375,2.21875 1.0625,4.28125 3.65625,3.375 2.28125,3.65625 4.84375,6.25 3.0625,1.1562 3.9375,4.4375 2.03125,3.0625 2.53125,3.2188 3.28125,1.875 2.65625,1.2187 3.78125,2.5313 4.96875,4.6562 2.34375,1.375 1.71875,-2.6562 3.5625,0.5624 2.84375,1.3438 3.9375,2.1875 2.0625,-0.6563 3.3125,1.75 2.09375,1.0938 0.78125,2.4062 2.9375,3 2.28125,0.8126 1.125,2.25 4.34375,1.7812 2.34375,1.375 2.6875,1.3438 2.84375,-0.75 3.53125,2.4374 3.71875,3 2.78125,0.6876 4.78125,-0.1876 2.6875,0.8438 7.6875,0.25 2.15625,0.9375 5.1875,0.4687 2.59375,2.0313 4.4375,0.6564 3.90625,1.4061 7.375,6.0312 5,2.4376 4.34375,-0.375 3.59375,1.5937 4.21875,1.0937 3.1875,0.5938 2.34375,-2.6562 2.78125,-1.3126 3.0625,1.7813 4.46875,2.0625 4,2.9689 2.28125,0.25 4.28125,-0.6564 3.5625,0.5625 2.46875,-0.031 2.125,0.625 1.0625,2.5624 2.84375,-0.375 2.375,1.9376 3.40625,0.1561 2.75,-1.625 2,0.5939 3.71875,-1.75 1.375,0.875 -0.0937,2.1874 1.3125,2.4688 2.21875,1.2812 7.96875,-1.8437 2.75,-1.0313 1.6875,2.1876 2,1.7186 3.71875,3.2814 3.6875,-0.5939 2.46875,-1.25 4,-1.1561 4.96875,-0.6876 2.28125,-0.2812 2.125,0.4375 1.21875,2.625 0.84375,-3.625 4.84375,-1.125 -1.03125,-3.125 4.875,-2.8125 2.625,0.375 4.65625,2.25 -0.9375,-2.4062 -3.40625,-1.375 -0.0937,-2.3126 1.53125,-2.25 1.59375,-2.25 -2.21875,-2.5937 -2.40625,-3.5937 0.0937,-5.5313 -0.46875,-4.2187 -0.5625,-4.8438 1.75,-9.2188 0.46875,-3.4062 -2.0625,-1.0938 -2.625,-9.1874 -2.21875,-5.75 -2.21875,-1.7188 -2.375,-1.1562 -6.8125,-3.2188 -3.09375,1.9688 -2.28125,-2.2813 1.1875,-2.1875 2.65625,-1.1562 -0.1875,-3.2813 -1.96875,-2.12505 -6.5,-3.03125 -2.125,-3.09375 L 778,989.46875 776.90625,982 776.5,978.4375 l 0.0625,-2.53125 -0.34375,-2.5625 L 774,973.4375 771.9375,973.375 769.875,974.9375 767.09375,973 763,966.21875 l -2.9375,-0.625 2.1875,-1.03125 2.3125,-2.5625 5.125,0.375 -1.09375,-0.59375 -3.8125,-0.96875 -2.9375,1.8125 -2.59375,0.34375 -0.59375,-2.75 -3.53125,-3.5625 -3.28125,-2.53125 -3.65625,-2.84375 -2.5625,-4.03125 -2.21875,-1.09375 -2.46875,-1.625 -3.15625,-3.25 -0.90625,-2.21875 -2.5625,-2.34375 -0.875,-2.8125 -3.8125,-6.71875 -3.125,-2.65625 -1.125,-2.09375 -3.53125,-1.875 -1.96875,2.15625 -0.0937,-3.03125 -2.34375,-5.375 -2.75,-2.90625 -2.71875,-1.8125 0.21875,-2.3125 -2.9375,-3.1875 -4.28125,-2.125 -0.75,-3 -3.125,-3.78125 -2.71875,-5.21875 -0.6875,-2.09375 -2.8125,1.34375 -2.71875,0.6875 -2.25,-1.4375 -4.90625,-4 -2.96875,0.15625 -2.15625,-1.625 -4.375,-4.59375 -3.1875,-4.0625 -1.75,-4.09375 -2.71875,-1.375 -2.875,-2.84375 -5.4375,-3.15625 -1.46875,-2.21875 -2.71875,-0.90625 -2.1875,0.6875 -5.09375,-1.0625 -2.65625,-0.5625 -4.84375,-0.40625 -2,2.125 -0.5,2.375 -3.03125,-1.09375 -3.53125,-2.90625 -4.875,-6.09375 -2.3125,-2.90625 -4.96875,-6.25 0.90625,-2.0625 -2.78125,-1.1875 -4.5625,-7.28125 -2.125,-2.28125 -2.21875,-2.0625 -3.28125,-5.1875 -5.34375,-4.9375 -3.03125,0.1875 -2.09375,-1.375 -2.625,0.21875 -5.59375,2.34375 -3.15625,0.25 -2.0625,-0.0625 -2.34375,-0.9375 0.5,-2 -3.5,-2.90625 -2.84375,-0.3125 -3.40625,-3.125 -2.0625,-0.96875 -1.7188,-3.53125 -3.84375,0.5 -3.84375,-1 -4.46875,-2.125 -4.28125,-3.0625 -0.78125,-2.9375 -2,-0.1875 -1.28125,4.46875 -1.21875,-2.21875 -4.375,2.53125 -4.5625,4.4375 -2.03125,0.8125 -4.09375,-0.5 -3.375,-4.15625 -2.15625,-1.375 -1.625,-2.40625 -2.0625,-1.15625 -2.90625,1.59375 -3.15625,-0.3125 -8.53125,0.59375 -10.0625,-2.1875 -2.28125,-2.09375 -2.46875,-1.96875 -2.71875,-3.375 -1.9375,2.03125 -2.34375,-1.40625 -0.125,-2.03125 -1.1875,-2.4375 -3.25,-4.5625 L 477,780.71875 474.75,779.75 z m 49.1875,25.96875 2.0625,1.8125 -3.21875,1.0625 -0.53125,-0.5625 1.6875,-2.3125 z m 17.84375,83.15625 3.53125,3.09375 0.0937,2.25 1.1875,4.65625 0.5625,2.9375 -2.4375,3.78125 -3.1875,-0.3125 -2.375,0.3125 -2.53125,-0.90625 -3.40625,-0.0313 -2.21875,-0.3125 -2.625,0.40625 -2.84375,2.3125 -2.0625,-1.09375 0.65625,-3.53125 2.59375,0.9375 -0.84375,-2.46875 -2.53125,-2.09375 0.28125,-2.3125 3.59375,-3.90625 -1.03125,-2.34375 2.25,-1 3.15625,1.15625 2.46875,0.625 3.875,-0.0313 2.90625,0.84375 0.9375,-2.96875 z m 149.75,2.6875 1.9375,4.25 -1.65625,-1.625 -0.28125,-2.625 z m -104.46875,43.84375 2.9375,0.6875 2.375,0.125 2.34375,-0.21875 2.78125,1.21875 2.1875,0.25 1.96875,2.40625 2.21875,0.4375 1.375,4.34375 0.125,3.875 0.78125,3.84375 1.53125,2.875 0.40625,3.28125 1.78125,2.34375 5.5,0.21875 3.25,-0.0313 3.53125,-0.75 L 624.5,961 l 4.5,-1.15625 0.96875,5.1875 2.09375,2.1875 1.625,6.3125 -1.5,7.15625 -4.375,1.3125 -3.59375,2.875 -2.53125,0.78125 -4.0625,0 -2.71875,-0.125 -3.84375,-2.0625 -5.1875,-7.6875 -1.8125,-2.03125 -0.21875,-2.09375 1.09375,-4.9375 -0.78125,-2.5 -2.34375,-0.15625 -3.03125,-1.40625 -3.25,0.0937 -2.0625,0.9375 -2.84375,-0.96875 -0.96875,2.3125 -2.625,1.9375 -2.03125,-2.0312 -3.28125,-0.21875 -3.5,0.8125 -6.5625,-2.625 -2.84375,-2 -4.4375,-3.96875 1.46875,-2.1875 0.8125,-2.28125 1.46875,-2.625 0.875,-2.625 1.25,-4.28125 2.53125,-1.46875 2.1875,-1.25 2.8125,-1.5625 2.75,-2 3.4375,-0.0313 3.09375,-1.21875 z M 724.75,949.375 l 2.875,1.4375 -2.25,1.71875 -0.59375,-1.15625 -0.0313,-2 z m 19.53125,86.1562 3.59375,2.5626 0.75,2.4062 2.21875,3.6875 -2,1.9063 -2.21875,-0.7813 -1.96875,2.625 -2.15625,1.625 -2.78125,-1.1875 -1.15625,-5.9062 1.71875,-4.2188 -0.875,-2.4688 2.4375,0.1563 2.4375,-0.4063 z m -6.75,4.4688 -0.6875,2.125 -0.1875,5.0312 -3.0625,-0.1562 0.4375,-2.4062 0.90625,-2.75 2.59375,-1.8438 z m 22.0625,0.8438 -0.78125,4.3437 0.34375,2.2813 -0.96875,-1.0938 -2.375,-2.5312 -1.71875,-2.4376 2.1875,-0.4687 3.3125,-0.094 z m 1.53125,4.0312 0.78125,0.4062 3.03125,2.0626 3.375,2.25 2.34375,1.6874 -0.9375,2.0938 0.75,2.5 -2.21875,-0.9062 -3.9375,-5.25 -2.75,-2.0313 -0.4375,-2.8125 z"
       id="path3970"
       sodipodi:nodetypes="ccccccccccccccccccccccccccccccccccccccccccccccccccccccccccccccccccccccccccccccccccccccccccccccccccccccccccccccccccccccccccccccccccccccccccccccccccccccccccccccccccccccccccccccccccccccccccccccccccccccccccccccccccccccccccccccccccccccccccccccccccccccccccccccccccccccccccccccccccccccccccccccccccccccccccccccccccccccccccccccccccccccccccccccccccccccccccccccccccccccccccccccccccccccccccccccccccccccccccccccccccccccccccccccccccccccccccccccccccccccccccccccccccccc"
       inkscape:connector-curvature="0"
       transform="matrix(0.03902037,0,0,0.03902037,1.6143313,1000.994)" />
    <path
       transform="matrix(0.03599968,0,0,0.03599968,3.3512916,1002.3575)"
       inkscape:connector-curvature="0"
       clip-path="url(#clipPath1-4)"
       d="m 399.8288,709.3387 2.2509,-1.0584 3.1826,-4.5091 2.6268,-2.7841 4.7274,0.9834 2.7356,-0.9957 2.237,1.206 1.6833,2.5728 2.425,10.2053 0.0435,2.622 -1.6081,4.8758 2.3618,0.6707 7.4926,4.7565 3.4002,8.6625 4.8658,16.5982 -0.3165,2.0239 0.1622,3.0402 3.9976,0.6225 1.347,-2.0168 2.8067,-2.4838 1.9563,-2.4295 0.3164,-2.1434 3.7741,-2.1193 2.4586,-4.8096 2.7355,-0.9942 2.8365,2.046 2.1817,0.1344 2.6664,0.1975 -0.1365,2.3232 1.165,6.98 -0.2017,2.7395 0.8268,3.3431 -0.5005,2.2011 -0.3204,2.3218 -0.4411,2.4996 -1.1077,2.4355 -0.0198,2.9198 -0.803,2.0798 -0.3936,4.4666 -0.3877,3.5131 -2.5635,2.7231 -8.3709,0.8358 -8.3036,0.2411 -6.6836,2.6962 -7.9416,0.4243 -3.5802,0.6319 -3.2043,-1.272 -3.3903,-0.4986 -4.1222,0.1524 -2.4171,-1.1476 -2.1283,1.1783 -2.7217,-1.03 -0.3402,-3.935 1.0444,-2.1985 2.7988,-1.6508 2.8543,-0.9949 2.1916,-1.6547 0.9296,-3.2117 -0.5301,-2.6255 -0.3876,-5.6634 -2.8068,-7.0495 -2.4784,-1.267 -1.26,-2.2723 -2.3024,-0.1332 -3.2775,0.3964 -2.6644,-0.4337 -2.7988,1.7108 -5.9558,2.4068 -2.1619,1.6347 -2.1046,2.2726 -3.4081,2.3037 2.8503,-0.2812 -1.1077,2.6751 -2.4942,1.5342 -4.1756,-1.276 -3.6177,-3.239 -6.4759,-2.8261 -7.7993,-3.0956 -5.2614,-2.6514 -2.4231,-0.5499 -5.4375,-3.5452 -2.5456,-0.3717 -3.8789,-0.4379 -1.6457,-2.366 -2.2668,-3.2563 -0.6527,-2.8637 -2.1738,-1.6202 0.3996,-7.2084 0.7397,-2.3794 -2.1777,-1.2032 0.3204,-3.3352 1.347,-2.3766 2.4389,-2.3704 2.3716,-1.2387 2.1679,3.0505 2.2845,3.9452 3.1431,1.9239 4.4801,1.693 2.3657,0.1325 3.6435,-0.9334 3.0302,-0.1315 2.6189,-1.3856 3.7859,-4.4478 2.2707,-5.0517 4.4485,-3.4304 3.0441,-1.9486 2.1877,-0.7616 5.9597,-2.2291 5.5384,-3.1842 2.2509,-0.8803 2.427,-0.0447 1.9879,2.336 1.0899,0.364 z m -30.1525,32.9513 1.7703,-2.1942 -3.0224,-1.8052 -0.8051,3.094 2.0572,0.9054 z"
       id="path3962"
       style="font-size:12px;font-style:normal;font-weight:normal;fill:#c6ecff;fill-opacity:1;fill-rule:evenodd;stroke:#0978ab;stroke-width:1;stroke-linecap:butt;stroke-linejoin:round;stroke-miterlimit:3.86369991;stroke-opacity:1;stroke-dasharray:none;stroke-dashoffset:0;marker:none;visibility:visible;display:inline;overflow:visible;enable-background:accumulate;font-family:Dialog" />
  </g>
</svg>
